<?xml version="1.0" encoding="utf-8"?>
<!-- Generator: Adobe Illustrator 26.0.3, SVG Export Plug-In . SVG Version: 6.00 Build 0)  -->
<svg version="1.1" id="Layer_1" xmlns="http://www.w3.org/2000/svg" xmlns:xlink="http://www.w3.org/1999/xlink" x="0px" y="0px"
	 viewBox="0 0 2400 460" style="enable-background:new 0 0 2400 460;" xml:space="preserve">
<style type="text/css">
	.st0{fill:#EAE2D9;}
	.st1{fill:#88D491;}
</style>
<g>
	<g>
		<path class="st0" d="M821.1,108l-13.9,6.7c-23.5-37.9-60-80.2-108-80.2c-36,0-63.9,27.9-63.9,63.9c0,41.8,44.2,58.6,77.8,68.7
			c60.5,18.7,122.5,35,122.5,111.4c0,61.5-48,102.3-107.6,102.3c-30.3,0-56.2-13.9-75.4-13.9c-10.6,0-22.1,6.7-29.3,13.9l-35.1-93.6
			l14.4-6.7c29.3,38.9,72.5,84.5,122.4,84.5c37,0,71.1-25,71.1-64.8c0-111.4-196.4-54.7-196.4-183.4c0-60.5,42.3-98,101.8-98
			c15.4,0,24,2.9,38.4,8.2c11.1,3.4,15.4,5.8,25.9,5.8c8.2,0,17.8-2.4,23.5-9.1L821.1,108z"/>
		<path class="st0" d="M908.1,309.7c0,45.2,0,48,32.7,51.9v13.9H833.1v-13.9c32.7-3.8,32.7-6.7,32.7-51.9V206.5
			c-1.4-25.5-1.9-34.6-31.2-34.6v-11.5l73.5-28.3v47.5c18.7-24.5,48-44.2,79.7-44.2c27.4,0,48,19.2,57.1,44.2
			c23-22.6,48-44.2,82.1-44.2c20.7,0,40.3,7.2,51.4,26.4c10.6,18.3,10.1,44.7,10.1,66.3v81.6c0,45.2,0,48,32.2,51.9v13.9h-107.1
			v-13.9c32.7-3.8,32.7-6.7,32.7-51.9v-86c0-25.9,0.5-62.9-35-62.9c-25,0-47.1,17.8-62.9,35v113.8c0,45.2,0,48,32.7,51.9v13.9H973.8
			v-13.9c32.2-3.8,32.2-6.7,32.2-51.9v-86c0-25.9-1-62.9-36.5-62.9c-25,0-47.1,17.8-61.5,35V309.7z"/>
		<path class="st0" d="M1226,262.2c0-62.4,41.3-126.8,109-126.8c66.7,0,106.6,65.3,106.6,126.3c0,61.5-45.6,119.1-109.5,119.1
			C1270.6,380.8,1226,321.2,1226,262.2z M1393.1,252.6c0-35.1-11.1-101.3-58.1-101.3c-48.5,0-60.5,63.4-60.5,100.4
			c0,34.1,11.1,113.3,57.6,113.3C1382,364.9,1393.1,289.5,1393.1,252.6z"/>
		<path class="st0" d="M1488.1,90.7c0-41.8-6.7-39.9-40.8-42.3V34.5l83.1-27.4v302.5c0,45.2,0,48,33.1,51.9v13.9H1456v-13.9
			c32.2-3.8,32.2-6.7,32.2-51.9V90.7z"/>
		<path class="st0" d="M1599.1,377.9h-5.8V90.7c0-41.8-6.7-39.9-40.8-42.3V34.5l83.1-27.4v159.9c16.8-16.8,42.7-31.7,67.2-31.7
			c60,0,91.7,64.3,91.7,116.7c0,55.2-34.1,128.7-98,128.7c-25.9,0-48-17.3-64.3-35.5L1599.1,377.9z M1636,331.3
			c13.9,11,28.3,24,48,24c48,0,64.8-62.9,64.8-101.3s-19.2-93.1-66.3-93.1c-18.7,0-34.6,13-46.6,25.9V331.3z"/>
		<path class="st0" d="M1841.6,90.7c0-41.8-6.7-39.9-40.8-42.3V34.5l83.1-27.4v302.5c0,45.2,0,48,33.1,51.9v13.9h-107.6v-13.9
			c32.2-3.8,32.2-6.7,32.2-51.9V90.7z"/>
		<path class="st0" d="M1920.3,262.2c0-62.4,41.3-126.8,109-126.8c66.8,0,106.6,65.3,106.6,126.3c0,61.5-45.6,119.1-109.5,119.1
			C1965,380.8,1920.3,321.2,1920.3,262.2z M2087.4,252.6c0-35.1-11-101.3-58.1-101.3c-48.5,0-60.5,63.4-60.5,100.4
			c0,34.1,11,113.3,57.6,113.3C2076.4,364.9,2087.4,289.5,2087.4,252.6z"/>
		<path class="st0" d="M2283.8,341.4c32.2,8.2,89.3,15.8,89.3,59.5c0,52.8-73.5,59.1-113.8,59.1c-31.2,0-119.1-4.3-119.1-48
			c0-34.1,48.5-42.3,72.5-50.4c-13.9-5.3-49.9-13.4-49.9-34.1c0-20.2,25.9-31.2,42.7-35.1c-25.9-14.9-40.8-42.7-40.8-73
			c0-52.3,48-84,96.5-84c22.6,0,47.1,6.7,64.4,23c12.5-12.5,30.2-25.5,49.5-25.5c14.4,0,24.5,11.5,24.5,25.9c0,11.5-8.2,23-19.7,23
			c-17.8,0-19.7-19.2-36.5-19.2c-3.4,0-6.2,1.9-9.1,4.3c13.4,13,19.2,37,19.2,55.2c0,50.9-48,84-94.1,84c-12,0-28.8-2.4-39.9-7.2
			c-5.3,1.9-13.9,4.8-13.9,12c0,13,31.7,18.7,40.3,21.1L2283.8,341.4z M2237.3,367.3c-19.7,6.2-54.8,16.8-54.8,42.7
			c0,31.7,57.6,34.1,82.1,34.1c21.6,0,72.5-2.9,72.5-30.2c0-17.8-21.6-24-35.1-28.3L2237.3,367.3z M2260.3,151.2
			c-36.5,0-49.9,41.3-49.9,71.5c0,31.7,14.4,67.7,50.9,67.7c36,0,46.6-36.5,46.6-66.3C2307.8,196.4,2295.4,151.2,2260.3,151.2z"/>
	</g>
	<g>
		<path class="st1" d="M336.4,49.3c-78.7,0-144.5,54-163.1,126.9c20.7,2.7,36.7,20.2,36.7,41.6c0,23.3-18.9,42.1-42.1,42.1
			s-42.1-18.9-42.1-42.1s18.9-42.1,42.1-42.1V49.3C75,49.3-0.4,124.7-0.4,217.7S75,386.2,168,386.2c78.7,0,144.5-54,163.1-126.9
			c-20.7-2.7-36.7-20.2-36.7-41.6c0-23.3,18.9-42.1,42.1-42.1c23.3,0,42.1,18.9,42.1,42.1s-18.9,42.1-42.1,42.1v126.3
			c93,0,168.4-75.4,168.4-168.4S429.5,49.3,336.4,49.3z M104.8,133.5c-11.6,0-21.1-9.4-21.1-21.1c0-11.6,9.4-21.1,21.1-21.1
			s21.1,9.4,21.1,21.1C125.9,124.1,116.5,133.5,104.8,133.5z"/>
		<path class="st1" d="M189.1,28.2c0-11.6-9.4-21.1-21.1-21.1v42.1C179.6,49.3,189.1,39.9,189.1,28.2z"/>
	</g>
</g>
</svg>
